<svg xmlns="http://www.w3.org/2000/svg" width="42" height="42" viewBox="0 0 42 42">
    <g fill="none" fill-rule="nonzero">
        <path stroke="#EF3E42" stroke-width="2" d="M21 1.414L1.414 21 21 40.586 40.586 21 21 1.414z"/>
        <path fill="#EF3E42" d="M21 13c1.518 0 2.894.617 3.89 1.613a5.492 5.492 0 0 1 1.61 3.894c0 1.059-.65 2.656-1.503 4.284-1.594 3.043-3.902 6.205-3.996 6.209-.076 0-1.421-1.82-2.762-4.029-1.34-2.208-2.676-4.804-2.737-6.357-.002-.037-.002-.072-.002-.107 0-1.52.617-2.898 1.612-3.894A5.481 5.481 0 0 1 21 13zm1.588 4.16a2.236 2.236 0 0 0-1.586-.659 2.241 2.241 0 0 0-2.245 2.247 2.241 2.241 0 0 0 2.245 2.248c.618 0 1.18-.251 1.586-.658.408-.406.66-.968.66-1.59 0-.62-.252-1.182-.66-1.589z"/>
    </g>
</svg>
